<svg version="1.1" id="Layer_3" xmlns="http://www.w3.org/2000/svg" x="0" y="0" viewBox="0 0 64 64" style="enable-background:new 0 0 64 64" xml:space="preserve"><style>.st0{fill:#faf5f5}.st1{fill:#63312d}.st11{fill:#52badb}</style><path d="M9.737 60.085V48.107c0-1.929-.576-3.805-1.605-5.437-2.197-3.482-3.874-7.063-4.603-11.272-.878-5.068-.494-10.433 1.541-15.189C8.876 7.312 18.513 3.033 27.877 4.074c11.599 1.289 19.128 11.117 19.61 22.511l4.75 13.25h-6.25v9.188a5.063 5.063 0 0 1-5.063 5.063H29.987v6H9.737z" style="fill:#84dbff"/><path d="M11.86 60.085V48.896c0-1.929-.576-3.805-1.605-5.437-2.197-3.482-3.874-7.063-4.603-11.272-.878-5.068-.494-10.433 1.541-15.189C10.998 8.101 20.635 3.823 30 4.863c1.422.158 2.781.448 4.075.85a21.468 21.468 0 0 0-6.198-1.639C18.513 3.033 8.875 7.312 5.07 16.209 3.035 20.965 2.651 26.33 3.529 31.398c.729 4.209 2.406 7.79 4.603 11.272 1.029 1.631 1.606 3.508 1.606 5.437v11.978h2.122z" style="fill:#a9ebff"/><path class="st1" d="M29.987 60.585H9.737a.5.5 0 0 1-.5-.5V48.107c0-1.798-.528-3.585-1.528-5.17-2.529-4.01-4.014-7.649-4.672-11.453-.952-5.492-.408-10.842 1.573-15.472C8.28 7.432 17.649 2.433 27.933 3.577c11.265 1.251 19.501 10.667 20.051 22.91l4.725 13.179a.5.5 0 0 1-.471.669h-5.75v8.688a5.57 5.57 0 0 1-5.563 5.563H30.487v5.5a.5.5 0 0 1-.5.499zm-19.75-1h19.25v-5.5a.5.5 0 0 1 .5-.5h10.937a4.568 4.568 0 0 0 4.563-4.563v-9.188a.5.5 0 0 1 .5-.5h5.54l-4.51-12.581a.505.505 0 0 1-.029-.148C46.49 14.831 38.609 5.769 27.822 4.571 17.985 3.475 9.025 8.234 5.529 16.405c-1.904 4.452-2.425 9.606-1.507 14.907.644 3.722 2.042 7.142 4.533 11.091 1.101 1.745 1.683 3.717 1.683 5.704v11.478z"/><path class="st11" d="M56.17 26.585c-.482-11.394-8.012-21.222-19.61-22.511h-8.682c11.599 1.289 19.128 11.117 19.61 22.511l4.75 13.25h-6.25v9.188a5.063 5.063 0 0 1-5.063 5.063h8.682a5.063 5.063 0 0 0 5.063-5.063v-9.188h6.25l-4.75-13.25zM29.987 54.085h8.682v6h-8.682z"/><path class="st1" d="M49.607 54.585h-8.682a.5.5 0 0 1 0-1 4.568 4.568 0 0 0 4.563-4.563v-9.188a.5.5 0 0 1 .5-.5h5.54l-4.51-12.581a.505.505 0 0 1-.029-.148c-.499-11.774-8.38-20.836-19.167-22.034a.5.5 0 0 1 .055-.997h8.682c11.32 1.254 19.556 10.67 20.106 22.913l4.725 13.179a.5.5 0 0 1-.471.669h-5.75v8.688a5.568 5.568 0 0 1-5.562 5.562zm-5.504-1h5.503a4.568 4.568 0 0 0 4.563-4.563v-9.188a.5.5 0 0 1 .5-.5h5.54l-4.51-12.581a.505.505 0 0 1-.029-.148c-.498-11.774-8.379-20.836-19.166-22.034l-4.019.001c8.873 2.956 15.025 11.391 15.498 21.915l4.725 13.179a.5.5 0 0 1-.471.669h-5.75v8.688a5.56 5.56 0 0 1-2.384 4.562zM38.669 60.585h-8.682a.5.5 0 0 1-.5-.5v-6a.5.5 0 0 1 .5-.5h8.682a.5.5 0 0 1 .5.5v6a.5.5 0 0 1-.5.5zm-8.182-1h7.682v-5h-7.682v5z"/><path class="st1" d="M52.237 39.335h2.432v1h-2.432zM27.003 15.21h-8.091a.5.5 0 0 1-.5-.5v-10h1v9.5h7.591v1z"/><path class="st1" d="M14.253 22.21h-1V11.46a.5.5 0 0 1 .5-.5h5.159v1h-4.659v10.25z"/><circle class="st0" cx="28.284" cy="14.71" r="1.5"/><circle class="st0" cx="38.67" cy="21.116" r="1.5"/><circle class="st0" cx="13.753" cy="23.502" r="1.5"/><circle class="st0" cx="15.253" cy="38.71" r="1.5"/><circle class="st0" cx="25.544" cy="37.21" r="1.5"/><circle class="st0" cx="25.544" cy="52.168" r="1.5"/><circle class="st0" cx="41.419" cy="37.21" r="1.5"/><path class="st1" d="M28.284 16.71c-1.103 0-2-.897-2-2s.897-2 2-2 2 .897 2 2-.897 2-2 2zm0-3c-.551 0-1 .449-1 1s.449 1 1 1 1-.449 1-1-.449-1-1-1zM38.669 23.116c-1.103 0-2-.897-2-2s.897-2 2-2 2 .897 2 2-.897 2-2 2zm0-3c-.551 0-1 .449-1 1s.449 1 1 1 1-.449 1-1-.448-1-1-1zM13.753 25.501c-1.103 0-2-.897-2-2s.897-2 2-2 2 .897 2 2-.897 2-2 2zm0-3c-.551 0-1 .449-1 1s.449 1 1 1 1-.449 1-1-.449-1-1-1zM15.253 40.71c-1.103 0-2-.897-2-2s.897-2 2-2 2 .897 2 2-.897 2-2 2zm0-3c-.551 0-1 .449-1 1s.449 1 1 1 1-.449 1-1-.449-1-1-1z"/><circle class="st0" cx="15.253" cy="53.252" r="1.5"/><path class="st1" d="M15.253 55.251c-1.103 0-2-.897-2-2s.897-2 2-2 2 .897 2 2-.897 2-2 2zm0-3c-.551 0-1 .449-1 1s.449 1 1 1 1-.449 1-1-.449-1-1-1zM25.544 39.21c-1.103 0-2-.897-2-2s.897-2 2-2 2 .897 2 2-.897 2-2 2zm0-3c-.551 0-1 .449-1 1s.449 1 1 1 1-.449 1-1-.448-1-1-1zM25.544 54.168c-1.103 0-2-.897-2-2s.897-2 2-2 2 .897 2 2-.897 2-2 2zm0-3c-.551 0-1 .449-1 1s.449 1 1 1 1-.449 1-1-.448-1-1-1zM41.419 39.21c-1.103 0-2-.897-2-2s.897-2 2-2 2 .897 2 2-.897 2-2 2zm0-3c-.551 0-1 .449-1 1s.449 1 1 1 1-.449 1-1-.448-1-1-1zM27.877 28.835h-4.541a.5.5 0 0 1-.5-.5v-9.75h-9.083v-1h9.583a.5.5 0 0 1 .5.5v9.75h3.541v-6.75a.5.5 0 0 1 .5-.5h9.459v1h-8.959v6.75a.5.5 0 0 1-.5.5z"/><path class="st1" d="M24.003 37.71h-5.091a.5.5 0 0 1-.5-.5v-7.63h-8.284a.5.5 0 0 1-.5-.5V18.585H4.362v-1h5.766a.5.5 0 0 1 .5.5V28.58h8.284a.5.5 0 0 1 .5.5v7.63h4.591v1z"/><path class="st1" d="M15.753 37.21h-1v-4.375h-8.25a.5.5 0 0 1-.5-.5V23.71H3.26v-1h3.243a.5.5 0 0 1 .5.5v8.625h8.25a.5.5 0 0 1 .5.5v4.875zM25.044 28.71h1v4.438h-1zM18.412 18.501h1v7.583h-1zM34.828 15.335h-1V10.21h-9.784a.5.5 0 0 1-.5-.5V4.074h1V9.21h9.784a.5.5 0 0 1 .5.5v5.625zM42.003 35.71h-1v-6.875h-2.75v4.313a.5.5 0 0 1-.5.5h-5.25a.5.5 0 0 1-.5-.5v-7.729a.5.5 0 0 1 .5-.5h14.833v1H33.003v6.729h4.25v-4.313a.5.5 0 0 1 .5-.5h3.75a.5.5 0 0 1 .5.5v7.375z"/><path class="st1" d="M34.419 33.147h1v5.563h-1zM15.753 52.168h-1v-8.333a.5.5 0 0 1 .5-.5h5V37.21h1v6.625a.5.5 0 0 1-.5.5h-5v7.833z"/><path class="st1" d="M24.044 52.668h-5.133a.5.5 0 0 1-.5-.5v-8.333h1v7.833h4.633v1z"/><path class="st1" d="M24.753 48.501H21.92v-1h2.333v-2.813a.5.5 0 0 1 .5-.5h4.734V41.75h-8.734v-1h9.234a.5.5 0 0 1 .5.5v3.438a.5.5 0 0 1-.5.5h-4.734v2.813a.5.5 0 0 1-.5.5zM11.086 40.751h-1V37.32H5.081v-1h5.505a.5.5 0 0 1 .5.5v3.931z"/></svg>